Coordinates
version=1
nRows=16
nColumns=22
inDegrees=yes

Units are S.I. units (second, meters, Newtons, ...)
If the header above contains a line with 'inDegrees', this indicates whether rotational values are in degrees (yes) or radians (no).

endheader
time	pelvis_tilt	pelvis_list	pelvis_rotation	pelvis_tx	pelvis_ty	pelvis_tz	hip_flexion_r	hip_adduction_r	hip_rotation_r	knee_angle_r	ankle_angle_r	subtalar_angle_r	hip_flexion_l	hip_adduction_l	hip_rotation_l	knee_angle_l	ankle_angle_l	subtalar_angle_l	lumbar_extension	lumbar_bending	lumbar_rotation
      2.61000000	      0.89355748	     -3.36309788	     -5.60472277	      0.06876486	      0.91024973	     -0.00522953	     -7.28610217	      5.02038490	     -3.63971593	    -22.89162188	     21.53694402	     -0.46702077	     31.70539536	     -8.24428025	    -15.13975698	    -22.99562871	    -10.53428247	     10.01208213	    -15.20453698	     -1.54383938	      6.29417470
      2.62000000	      1.07165538	     -3.54976044	     -5.60960602	      0.05877704	      0.91141691	     -0.00395398	     -6.99226224	      5.39124514	     -3.73204881	    -22.59197477	     21.58482944	     -0.85226851	     31.74641145	     -8.66426674	    -14.88501907	    -23.81052430	     -9.28096561	     10.11787987	    -15.61372338	     -1.33875630	      5.95808263
      2.63000000	      1.21439499	     -3.72017991	     -5.61629018	      0.04902380	      0.91263517	     -0.00271533	     -6.66348360	      5.75073371	     -3.78501410	    -22.29817935	     21.53213014	     -1.36408443	     31.86131897	     -9.04743306	    -14.38528692	    -25.00598363	     -7.86838598	      9.81473877	    -15.94408449	     -1.15281816	      5.61775851
      2.64000000	      1.32085930	     -3.82777292	     -5.64815328	      0.03953281	      0.91390314	     -0.00152032	     -6.27880058	      6.03049909	     -3.84612961	    -22.04733533	     21.44570816	     -1.92155561	     32.02618209	     -9.36107145	    -13.77824715	    -26.54683744	     -6.32880004	      9.00590174	    -16.18654314	     -1.04428608	      5.30456895
      2.65000000	      1.44282543	     -3.93807935	     -5.67236937	      0.03029424	      0.91532374	     -0.00039898	     -5.94599309	      6.31083955	     -3.86940420	    -21.75248472	     21.26616740	     -2.30817900	     32.18020671	     -9.64230584	    -13.01396898	    -28.40117879	     -4.80976099	      8.16541395	    -16.41689582	     -0.93412446	      4.98720004
      2.66000000	      1.54791473	     -4.04027513	     -5.70392296	      0.02127572	      0.91681594	      0.00065196	     -5.60669644	      6.57204714	     -3.89020296	    -21.45548553	     21.03333588	     -2.67159435	     32.35648909	     -9.89753011	    -12.18888174	    -30.55347929	     -3.35610828	      7.20221573	    -16.60155698	     -0.83458709	      4.69956523
      2.67000000	      1.64073476	     -4.14809551	     -5.73621340	      0.01249128	      0.91837200	      0.00162324	     -5.28120068	      6.82861204	     -3.91395667	    -21.13413585	     20.72775923	     -2.98953017	     32.54111515	    -10.14384939	    -11.34601480	    -32.97275233	     -2.02385247	      6.22256060	    -16.74370461	     -0.72477060	      4.42600923
      2.68000000	      1.71238231	     -4.24565361	     -5.79051501	      0.00389706	      0.91995112	      0.00253227	     -4.93301952	      7.05837440	     -3.93598923	    -20.83558911	     20.40321979	     -3.29362519	     32.71571068	    -10.37093477	    -10.51780855	    -35.59422146	     -0.76664566	      5.12498515	    -16.83971965	     -0.62611378	      4.19281921
      2.69000000	      1.76230896	     -4.39003907	     -5.82927038	     -0.00446914	      0.92154416	      0.00337906	     -4.62191434	      7.33261458	     -3.98719351	    -20.45478286	     19.95029780	     -3.52712414	     32.89473077	    -10.63627861	     -9.69273603	    -38.40919819	      0.29658263	      4.20449441	    -16.88839558	     -0.46729236	      3.97146779
      2.70000000	      1.79015636	     -4.53353278	     -5.89480073	     -0.01270005	      0.92312371	      0.00421053	     -4.28717844	      7.59795923	     -4.00877433	    -20.09480763	     19.48316530	     -3.73462943	     33.02271429	    -10.88909323	     -8.87322839	    -41.30406548	      1.29035239	      3.26132911	    -16.89815855	     -0.31446160	      3.77247975
      2.71000000	      1.78667460	     -4.71184887	     -5.97087450	     -0.02078319	      0.92465936	      0.00501653	     -3.94888532	      7.89387468	     -4.04743552	    -19.70210572	     18.91504621	     -3.88923390	     33.11750503	    -11.17357321	     -8.06740473	    -44.26316228	      2.08806426	      2.49365096	    -16.85930638	     -0.12000964	      3.60513600
      2.72000000	      1.75461081	     -4.89282527	     -6.07852769	     -0.02877645	      0.92612464	      0.00581094	     -3.57541418	      8.18773684	     -4.05620431	    -19.33497946	     18.33103466	     -4.01879039	     33.13765256	    -11.45156658	     -7.28048865	    -47.20247201	      2.80198456	      1.75420882	    -16.78134000	      0.07630931	      3.44973217
      2.73000000	      1.68527928	     -5.07442276	     -6.21702441	     -0.03670924	      0.92748268	      0.00658362	     -3.15076495	      8.47899337	     -4.04197891	    -19.00186946	     17.73438928	     -4.12832438	     33.08140727	    -11.71854113	     -6.51749518	    -50.07685641	      3.41802574	      1.03599255	    -16.65886899	      0.27532863	      3.31007967
      2.74000000	      1.58992539	     -5.25498349	     -6.38115145	     -0.04456135	      0.92872579	      0.00734731	     -2.69050577	      8.76737669	     -4.01617457	    -18.69964640	     17.12799222	     -4.21677115	     32.92462598	    -11.97560642	     -5.79501041	    -52.84758855	      3.93180736	      0.40652123	    -16.50023179	      0.47263343	      3.17027104
      2.75000000	      1.46469363	     -5.42904912	     -6.56546686	     -0.05234651	      0.92982844	      0.00807205	     -2.19032215	      9.04688825	     -3.98568253	    -18.42279306	     16.52518246	     -4.29219798	     32.66294349	    -12.21338915	     -5.12007262	    -55.47790409	      4.35232803	     -0.13718702	    -16.30567328	      0.66893287	      3.02263189
      2.76000000	      1.31458219	     -5.59356986	     -6.76034009	     -0.06005186	      0.93076914	      0.00876084	     -1.64825923	      9.31550338	     -3.95798904	    -18.18881732	     15.93921545	     -4.36148229	     32.28813757	    -12.43081134	     -4.50476107	    -57.94175701	      4.69584553	     -0.60871924	    -16.07573748	      0.85898628	      2.85533639
